<?xml version="1.0" standalone="no"?>
<!DOCTYPE svg PUBLIC "-//W3C//DTD SVG 20010904//EN"
 "http://www.w3.org/TR/2001/REC-SVG-20010904/DTD/svg10.dtd">
<svg version="1.0" xmlns="http://www.w3.org/2000/svg"
 width="500.000000pt" height="500.000000pt" viewBox="0 0 500.000000 500.000000"
 preserveAspectRatio="xMidYMid meet">
<metadata>
Created by potrace 1.11, written by Peter Selinger 2001-2013
</metadata>
<g transform="translate(0.000000,500.000000) scale(0.100000,-0.100000)"
fill="#000000" stroke="none">
<path d="M4036 4909 c-197 -27 -414 -108 -610 -226 l-58 -36 -52 23 c-283 124
-503 172 -801 173 -219 1 -294 -8 -531 -64 -193 -45 -477 -162 -643 -266 l-74
-47 -36 21 c-20 11 -81 45 -137 77 -168 95 -338 144 -571 167 -137 14 -285 1
-313 -26 -24 -25 -21 -561 4 -700 42 -230 92 -387 187 -582 l69 -141 -16 -74
c-25 -107 -25 -473 -1 -623 27 -170 65 -329 109 -460 l41 -120 8 -695 c7 -558
12 -735 27 -900 l20 -205 -44 -38 c-47 -41 -71 -97 -60 -141 4 -18 13 -26 29
-26 20 0 22 4 19 45 -4 42 -1 49 33 80 20 19 46 35 57 35 19 0 20 4 14 58 -26
242 -39 521 -47 1082 -5 344 -11 652 -13 685 -2 34 -17 96 -34 145 -32 86 -76
251 -88 326 l-6 41 87 76 c83 73 180 128 363 208 61 26 112 78 112 113 0 37
-35 73 -78 81 -84 14 -305 -56 -441 -140 -41 -25 -75 -44 -78 -42 -2 2 -6 40
-9 83 l-6 79 88 51 c106 62 255 119 347 134 86 13 110 23 141 57 46 49 28 90
-51 119 -75 26 -269 11 -410 -34 -34 -11 -64 -18 -66 -15 -6 6 39 168 75 273
34 99 105 250 158 335 20 33 48 80 62 105 32 56 268 288 372 365 299 221 668
373 1034 426 126 18 176 21 347 16 225 -6 343 -26 540 -92 526 -176 1005 -618
1129 -1040 15 -50 33 -111 41 -136 25 -79 22 -88 -27 -82 -24 2 -52 6 -62 8
-11 2 -32 -5 -48 -16 -43 -31 -39 -81 10 -128 34 -32 124 -74 159 -74 9 0 13
-15 13 -44 0 -23 -3 -43 -7 -43 -5 0 -30 7 -57 15 -63 19 -63 19 -91 -10 -17
-16 -25 -35 -25 -59 0 -39 18 -62 70 -85 19 -9 52 -26 73 -39 32 -21 37 -29
37 -61 0 -78 -51 -281 -70 -281 -14 0 -42 39 -36 49 11 18 -34 92 -87 143 -94
91 -247 165 -417 204 -38 8 -70 19 -70 24 0 13 95 23 280 29 166 6 175 7 175
26 0 19 -8 20 -130 23 -71 1 -177 -4 -234 -11 l-104 -13 -18 30 c-11 17 -19
36 -19 42 0 10 196 71 350 109 130 32 140 36 140 50 0 33 -83 18 -360 -66
l-165 -50 -56 54 c-103 100 -280 196 -409 222 -54 11 -81 22 -96 39 -65 73
-188 126 -293 126 -72 0 -145 -33 -204 -93 -42 -42 -49 -45 -117 -51 -197 -20
-421 -125 -535 -252 l-40 -44 -50 14 c-131 39 -510 105 -523 91 -10 -10 67
-36 193 -65 202 -46 339 -80 344 -85 2 -3 -1 -23 -8 -45 -11 -38 -13 -40 -54
-40 -23 0 -105 -5 -182 -10 -77 -5 -177 -10 -221 -11 -89 -2 -110 -8 -101 -33
8 -21 78 -21 322 -1 222 18 215 18 215 2 0 -8 -27 -18 -72 -26 -218 -40 -406
-140 -569 -301 -130 -129 -199 -242 -249 -410 -13 -41 -27 -81 -33 -88 -12
-15 -1 -156 13 -160 6 -2 24 -31 40 -65 178 -357 608 -575 1320 -667 293 -38
778 -50 1041 -26 158 15 369 53 448 81 24 8 58 15 76 15 17 0 81 18 141 39 60
21 174 53 254 71 194 42 186 38 192 100 9 92 80 137 141 90 34 -27 42 -25 68
10 12 16 29 32 38 36 35 14 96 22 117 14 26 -10 74 -87 74 -117 0 -14 10 -24
30 -31 20 -7 34 -23 45 -48 17 -41 20 -165 5 -194 -13 -24 -57 -34 -92 -19
-22 9 -35 9 -51 1 -12 -6 -65 -30 -117 -52 -141 -61 -244 -120 -432 -247 -121
-81 -176 -112 -189 -108 -16 5 -19 1 -19 -24 0 -33 -4 -35 -89 -51 -68 -13
-95 -30 -117 -75 -37 -79 11 -119 138 -113 l79 3 -3 -130 -3 -130 -75 -7 c-88
-9 -119 -28 -138 -83 -10 -30 -10 -45 -1 -67 16 -39 36 -48 127 -55 l79 -6 -5
-93 -5 -94 26 0 c20 0 28 6 31 22 9 42 15 622 8 726 -6 86 -4 106 8 117 53 46
376 251 478 304 165 84 241 112 285 104 19 -3 52 0 72 7 46 15 74 71 75 146 0
33 5 56 15 64 23 19 18 38 -12 54 -16 8 -37 30 -47 50 -10 20 -27 38 -37 41
-10 3 -21 16 -25 28 -3 12 -19 41 -35 65 -16 24 -29 54 -29 66 0 30 -20 38
-51 22 -13 -6 -50 -18 -82 -25 -31 -7 -70 -23 -86 -37 -16 -13 -32 -24 -36
-24 -4 0 -24 19 -45 41 -42 46 -53 45 -75 -8 -9 -20 -24 -42 -34 -49 -25 -18
-51 -75 -51 -112 0 -29 -3 -31 -57 -42 -32 -6 -93 -20 -137 -31 -43 -10 -83
-19 -88 -19 -6 0 16 19 48 43 199 147 322 369 350 633 13 127 -28 272 -101
353 -34 38 -36 43 -22 59 52 59 79 203 79 422 -1 210 -18 368 -63 562 -9 40
-8 50 5 63 38 39 122 276 141 401 22 144 28 400 16 614 -13 217 -13 218 -89
240 -51 15 -263 21 -346 9z m384 -285 c10 -215 -1 -516 -21 -616 -20 -99 -93
-308 -108 -308 -3 0 -32 54 -65 121 -63 129 -132 231 -232 345 l-63 71 24 51
c28 60 107 179 184 277 64 82 259 281 267 273 3 -3 9 -99 14 -214z m-458 154
c44 -23 102 -63 130 -88 l51 -46 -70 -89 c-62 -79 -165 -235 -175 -267 -3 -7
-41 20 -85 58 -93 81 -236 183 -324 234 -34 19 -62 40 -62 45 -1 27 373 193
437 195 10 0 54 -19 98 -42z m-3631 -195 c87 -69 204 -192 272 -285 80 -108
179 -277 171 -291 -4 -7 -27 -42 -50 -78 -24 -36 -66 -114 -93 -172 -48 -102
-64 -147 -111 -307 -12 -41 -24 -82 -27 -90 -13 -42 -148 290 -197 485 -26
106 -45 236 -56 390 -12 171 -4 418 14 408 6 -3 41 -30 77 -60z m561 21 c76
-27 318 -153 318 -166 0 -4 -35 -33 -77 -65 -79 -58 -303 -276 -303 -293 0
-25 -22 -5 -56 53 -54 89 -140 214 -191 274 l-44 52 48 46 c44 43 188 125 219
125 7 0 46 -12 86 -26z m1721 -1076 c8 -11 7 -28 -2 -57 -14 -49 -47 -63 -87
-36 -23 14 -25 22 -21 52 4 19 14 41 24 49 23 18 73 14 86 -8z m-181 -99 c-3
-56 27 -111 86 -156 62 -47 139 -68 247 -67 117 1 195 28 249 85 38 41 39 42
33 105 -2 35 -3 64 -2 64 2 0 34 -9 71 -21 124 -38 250 -110 339 -192 46 -43
49 -48 33 -61 -30 -23 -22 -38 16 -30 31 5 36 3 51 -25 18 -37 13 -51 -19 -51
-13 0 -29 -6 -35 -14 -15 -17 5 -26 60 -26 l39 0 0 -63 c0 -51 -6 -76 -30
-124 -62 -123 -169 -189 -325 -200 -141 -9 -259 32 -400 141 -41 32 -64 44
-78 40 -11 -3 -54 -30 -97 -59 -121 -83 -244 -115 -435 -115 -78 0 -131 6
-178 19 -140 39 -242 144 -267 276 -13 68 -10 80 24 87 29 5 31 26 3 34 -23 5
-24 8 -15 35 14 39 19 41 67 22 73 -28 83 17 11 47 -17 7 -30 16 -30 20 0 13
97 99 155 136 75 47 149 80 243 105 79 22 160 38 177 35 5 -2 8 -22 7 -47z
m1437 -511 c91 -38 210 -117 250 -165 16 -19 32 -50 35 -68 4 -22 29 -57 70
-102 77 -84 110 -134 130 -203 48 -160 -14 -430 -138 -604 -157 -221 -441
-363 -836 -420 -462 -67 -1189 -25 -1650 95 -442 116 -732 328 -838 612 -28
73 -29 102 -4 92 9 -4 46 -9 82 -11 49 -4 75 0 104 14 l40 18 50 -34 c70 -47
161 -92 186 -92 34 0 79 28 95 60 49 95 -31 171 -166 156 -57 -7 -61 -6 -54
11 53 121 68 222 38 255 -37 41 -123 4 -156 -66 -23 -48 -33 -159 -19 -209 10
-37 9 -39 -20 -57 -44 -26 -99 -34 -147 -19 -49 14 -51 26 -20 119 82 251 283
470 541 588 71 33 200 76 259 87 36 7 37 6 44 -32 9 -53 41 -121 74 -163 19
-24 32 -56 39 -99 12 -65 34 -111 54 -111 6 0 26 16 45 36 l34 36 47 -12 c144
-38 347 -29 496 21 85 28 226 109 226 130 0 18 23 8 65 -28 58 -52 159 -110
225 -131 82 -25 245 -22 328 7 l63 21 33 -25 c48 -37 73 -33 85 13 6 20 11 55
11 78 0 26 11 60 30 97 17 30 35 83 41 115 l11 60 71 -20 c40 -10 105 -33 146
-50z m-347 -260 c-6 -6 -15 -7 -21 -4 -17 11 -13 34 7 45 13 8 18 6 20 -11 2
-11 -1 -25 -6 -30z m-1587 12 c4 -6 1 -18 -6 -26 -14 -17 -20 -10 -34 34 -6
21 -5 23 13 13 12 -6 24 -16 27 -21z m-698 -212 c-9 -91 -64 -208 -97 -208
-14 0 -22 75 -14 137 6 47 13 64 39 90 18 18 43 33 55 33 21 0 22 -3 17 -52z
m162 -252 c12 -11 21 -30 21 -43 0 -28 -41 -73 -67 -73 -10 0 -60 24 -110 52
-76 43 -89 54 -75 62 54 30 199 31 231 2z"/>
<path d="M3685 2648 c-68 -36 -155 -108 -155 -129 0 -31 27 -23 94 27 33 26
76 54 94 62 23 11 32 22 30 36 -4 27 -17 28 -63 4z"/>
<path d="M2100 2560 c0 -15 24 -32 103 -72 100 -52 137 -63 144 -43 5 19 -12
32 -111 83 -109 57 -136 63 -136 32z"/>
<path d="M3655 2429 c-33 -19 -76 -62 -91 -91 -35 -68 3 -146 93 -192 65 -33
137 -11 187 57 43 59 19 158 -52 211 -30 23 -109 31 -137 15z"/>
<path d="M2129 2392 c-26 -12 -76 -57 -88 -80 -6 -11 -11 -50 -11 -86 0 -64 1
-67 43 -110 52 -55 97 -66 162 -42 24 10 58 33 76 53 29 34 31 40 27 104 -4
72 -20 104 -70 142 -28 21 -111 32 -139 19z"/>
<path d="M2640 2266 c-37 -98 -36 -162 5 -232 60 -102 191 -90 273 25 l27 37
46 -46 c54 -54 112 -75 189 -68 56 6 86 26 106 75 35 83 -4 242 -50 204 -11
-10 -11 -18 0 -49 16 -46 17 -89 3 -131 -13 -37 -36 -51 -81 -50 -78 2 -141
47 -184 131 -18 35 -30 48 -40 44 -9 -3 -18 -6 -20 -6 -2 0 -4 -13 -4 -28 0
-65 -95 -162 -158 -162 -31 0 -69 37 -88 86 -18 46 -15 78 12 172 9 31 -23 30
-36 -2z"/>
<path d="M2255 4644 c-11 -2 -46 -9 -77 -15 -68 -14 -126 -45 -110 -61 7 -7
34 -5 89 8 62 15 115 18 258 17 99 0 202 -6 229 -12 35 -8 52 -9 60 -1 16 16
-4 42 -40 53 -32 9 -377 19 -409 11z"/>
<path d="M2415 4550 c-3 -5 -3 -37 1 -70 5 -48 4 -60 -7 -60 -8 0 -56 -5 -108
-10 -102 -11 -129 -23 -109 -47 9 -12 31 -13 112 -7 55 4 107 7 115 8 13 1 17
-14 22 -69 3 -38 4 -71 3 -73 -1 -2 -64 -10 -140 -18 -141 -14 -183 -29 -157
-55 9 -9 58 -7 195 5 101 9 259 16 351 16 140 0 169 2 173 15 4 8 0 23 -7 32
-12 14 -35 15 -185 11 l-171 -6 -7 71 c-3 38 -4 73 0 76 3 3 47 8 97 11 84 5
92 7 92 25 0 19 -8 20 -102 23 l-102 3 -6 32 c-13 63 -27 97 -40 97 -8 0 -17
-4 -20 -10z"/>
<path d="M3485 3804 c-55 -29 -70 -60 -70 -146 0 -69 3 -81 30 -120 91 -130
263 -93 306 66 18 68 -17 152 -81 189 -42 25 -147 31 -185 11z m53 -74 c29
-27 29 -74 0 -94 -46 -33 -98 -7 -98 47 0 61 55 87 98 47z"/>
<path d="M1551 3720 c-154 -65 -175 -263 -36 -342 83 -47 222 -20 280 56 40
52 44 110 12 179 -36 79 -82 111 -166 114 -36 2 -77 -2 -90 -7z m14 -95 c61
-60 -1 -145 -76 -104 -43 23 -47 102 -5 119 36 15 56 11 81 -15z"/>
<path d="M167 1724 c-34 -34 -73 -113 -88 -179 -13 -57 -6 -89 56 -250 l27
-70 -5 -210 c-7 -255 -22 -357 -93 -635 -33 -130 -58 -248 -61 -297 l-6 -83
195 0 194 0 37 193 c75 391 93 564 83 807 -15 359 -59 534 -168 671 -32 39
-95 79 -125 79 -11 0 -32 -12 -46 -26z m262 -401 c7 -38 16 -124 21 -193 7
-105 6 -127 -6 -136 -15 -12 -91 -29 -183 -40 l-54 -7 7 74 c3 41 2 110 -3
154 -10 94 -9 96 100 150 36 18 71 40 78 49 22 27 29 19 40 -51z m18 -640 c-3
-52 -9 -99 -14 -104 -4 -4 -65 -11 -135 -15 -122 -7 -128 -6 -128 12 1 36 28
176 37 185 4 4 51 10 104 11 53 2 107 4 119 5 23 2 23 1 17 -94z m-47 -330 c0
-9 -32 -177 -35 -180 -4 -6 -288 -33 -293 -28 -6 6 14 123 28 160 8 21 16 25
52 26 24 0 83 7 133 14 117 16 115 16 115 8z"/>
<path d="M1034 1245 c-12 -30 3 -603 20 -780 27 -276 25 -263 47 -270 25 -8
86 -71 106 -108 11 -22 12 -36 4 -58 -9 -27 -8 -29 13 -29 57 0 44 91 -23 164
l-26 29 25 -7 c69 -19 177 -18 285 3 121 24 163 43 183 85 16 31 8 119 -11
134 -21 17 -90 20 -232 9 -132 -9 -277 -4 -302 11 -10 6 -39 200 -31 207 2 1
47 -2 100 -8 82 -9 109 -8 175 6 163 35 253 104 240 184 -10 61 -20 65 -189
74 -152 9 -312 33 -335 52 -10 7 -13 52 -13 163 0 132 -2 154 -15 154 -9 0
-18 -7 -21 -15z"/>
<path d="M4199 847 c-48 -42 -74 -83 -88 -134 -29 -107 80 -190 175 -134 26
16 40 19 47 12 22 -22 64 -12 91 20 14 17 26 35 26 40 0 19 19 8 22 -13 2 -12
8 -23 14 -25 15 -5 24 30 24 94 0 49 2 53 27 59 34 9 50 -13 58 -75 8 -63 18
-94 32 -98 22 -8 34 44 25 103 -10 60 -1 68 38 36 16 -13 23 -34 30 -86 5 -38
13 -73 18 -78 13 -13 32 -2 32 18 0 20 4 18 38 -16 33 -32 67 -38 97 -16 27
19 13 46 -24 46 -20 0 -34 7 -41 19 -18 34 -12 51 18 51 66 0 96 65 50 107
-49 44 -93 34 -118 -27 l-13 -31 -29 35 c-30 37 -84 61 -112 50 -9 -3 -23 -1
-31 6 -9 8 -31 11 -55 7 -22 -3 -43 -1 -46 4 -10 18 -34 9 -40 -16 l-6 -24
-28 20 c-37 28 -67 21 -103 -23 -26 -33 -30 -46 -31 -100 -1 -59 -3 -63 -26
-66 -13 -2 -41 1 -62 7 -45 14 -56 43 -39 100 13 44 75 113 99 109 20 -4 29
31 10 43 -23 15 -42 10 -79 -24z m207 -111 c7 -29 -20 -96 -39 -96 -18 0 -29
49 -20 90 7 39 49 43 59 6z m464 -6 c0 -5 -7 -10 -15 -10 -8 0 -15 5 -15 10 0
6 7 10 15 10 8 0 15 -4 15 -10z"/>
<path d="M4239 419 c-17 -30 -16 -257 1 -289 20 -36 35 -17 38 48 3 56 5 62
25 62 40 0 51 -16 57 -77 4 -50 8 -58 25 -58 17 0 20 8 23 54 2 30 -2 67 -8
82 -13 31 -53 49 -92 42 -22 -4 -26 0 -32 27 -3 18 -6 49 -6 69 0 52 -14 70
-31 40z"/>
<path d="M4594 281 c-6 -28 -7 -28 -25 -10 -24 24 -66 34 -98 23 -55 -20 -70
-120 -25 -173 31 -38 63 -40 101 -6 l28 24 -37 1 c-34 0 -68 20 -68 39 0 5 21
11 47 14 27 3 52 12 59 22 11 14 13 8 19 -38 8 -64 17 -82 38 -74 11 4 17 22
19 58 3 51 4 53 38 62 19 4 42 15 50 23 13 13 13 16 0 25 -8 5 -34 7 -56 4
-36 -5 -42 -3 -47 15 -8 30 -37 25 -43 -9z"/>
<path d="M4782 274 c-49 -34 -65 -104 -38 -169 24 -57 73 -69 153 -39 34 13
43 22 43 40 0 28 -20 31 -81 13 -44 -14 -69 -1 -69 35 0 19 5 21 44 18 35 -3
49 1 65 17 28 28 27 37 -8 72 -33 33 -74 38 -109 13z m63 -44 c3 -5 -3 -10
-15 -10 -12 0 -18 5 -15 10 3 6 10 10 15 10 5 0 12 -4 15 -10z"/>
</g>
</svg>
